:FULLY-SPECIFIED
:FORCE-ALL-JOINTS-BE-3DOF
:DEGREES
1835
root 6.86761 13.8737 27.7416 1059.45 52.1495 337.532
lfemur -53.2761 28.3965 2.34336
ltibia 68.5384 0 0
lfoot -6.1381 -7.97527 0
ltoes -24.3609 0 0
rfemur 4.23761 -3.58755 17.4655
rtibia 48.2854 0 0
rfoot -26.8251 -30.4973 0
rtoes -26.565 0 0
lowerback 13.7427 4.43593 5.62023
upperback -0.312529 7.34415 5.20438
thorax -8.04566 3.49013 0.910025
lowerneck -4.6131 8.74364 2.66229
upperneck 8.41253 11.6483 -0.965962
head 3.78303 5.82273 -0.205231
lclavicle -1.06596e-13 -3.23696e-14 0
lhumerus 62.4031 18.5317 109.467
lradius 9.61104 0 0
lwrist -79.9249 0 0
lhand -32.0983 42.4759 0
lfingers 7.12502 0 0
lthumb -5.50353 33.1117 0
rclavicle 1.21261e-14 -1.23619e-14 0
rhumerus -71.3377 12.8675 -79.3964
rradius 124.459 0 0
rwrist -158.027 0 0
rhand -59.5859 -346.202 0
rfingers 7.12502 0 0
rthumb -43.9588 342.273 0
1836
root 6.90143 13.8723 27.7502 1059.49 52.1689 337.362
lfemur -53.4775 28.544 2.2733
ltibia 68.8244 0 0
lfoot -6.41347 -8.0678 0
ltoes -24.5316 0 0
rfemur 4.42586 -3.61513 17.4267
rtibia 48.1798 0 0
rfoot -26.666 -30.4853 0
rtoes -26.7634 0 0
lowerback 13.7539 4.46734 5.71752
upperback -0.376067 7.40932 5.21091
thorax -8.10947 3.51522 0.848001
lowerneck -4.44722 9.07827 2.99496
upperneck 8.29951 12.1068 -1.32359
head 3.77306 6.0463 -0.358745
lclavicle -1.07603e-13 -2.97096e-14 0
lhumerus 62.4751 18.341 109.487
lradius 9.71769 0 0
lwrist -81.2018 0 0
lhand -32.0417 42.3213 0
lfingers 7.12502 0 0
lthumb -5.43677 38.4975 0
rclavicle 1.32028e-14 -1.3418e-14 0
rhumerus -71.5095 12.8544 -79.8107
rradius 124.536 0 0
rwrist -155.585 0 0
rhand -59.0749 -351.432 0
rfingers 7.12502 0 0
rthumb -42.5565 338.476 0
1837
root 6.93532 13.8741 27.7652 1059.64 52.2104 337.374
lfemur -53.6788 28.6914 2.20325
ltibia 69.1103 0 0
lfoot -6.68884 -8.16033 0
ltoes -24.7023 0 0
rfemur 4.48849 -3.68484 17.4397
rtibia 48.0742 0 0
rfoot -26.5069 -30.4732 0
rtoes -26.9619 0 0
lowerback 13.7589 4.5533 5.70455
upperback -0.428659 7.52225 5.17295
thorax -8.16406 3.56668 0.790352
lowerneck -4.20918 9.43602 3.3133
upperneck 8.09428 12.5962 -1.66263
head 3.71913 6.28656 -0.508476
lclavicle -1.0861e-13 -2.70496e-14 0
lhumerus 62.547 18.1504 109.508
lradius 9.82434 0 0
lwrist -82.4788 0 0
lhand -31.985 42.1668 0
lfingers 7.12502 0 0
lthumb -5.37 43.8834 0
rclavicle 1.42794e-14 -1.4474e-14 0
rhumerus -71.6814 12.8413 -80.225
rradius 124.614 0 0
rwrist -153.144 0 0
rhand -58.5639 -356.662 0
rfingers 7.12502 0 0
rthumb -41.1543 334.679 0
1838
root 6.96314 13.8698 27.7648 1059.77 52.2613 337.314
lfemur -53.8802 28.8389 2.1332
ltibia 69.3963 0 0
lfoot -6.96421 -8.25286 0
ltoes -24.873 0 0
rfemur 4.55111 -3.75454 17.4528
rtibia 47.9686 0 0
rfoot -26.3478 -30.4611 0
rtoes -27.1603 0 0
lowerback 13.8357 4.57918 5.8176
upperback -0.486375 7.58529 5.15208
thorax -8.25247 3.58771 0.685735
lowerneck -3.99529 9.86151 3.6036
upperneck 7.8791 13.183 -2.05905
head 3.67642 6.57219 -0.6649
lclavicle -1.09617e-13 -2.43896e-14 0
lhumerus 62.619 17.9597 109.529
lradius 9.85084 0 0
lwrist -83.7557 0 0
lhand -31.9283 42.0123 0
lfingers 7.12502 0 0
lthumb -5.30323 49.2693 0
rclavicle 1.53561e-14 -1.55301e-14 0
rhumerus -71.8533 12.8282 -80.6392
rradius 124.691 0 0
rwrist -150.703 0 0
rhand -58.0529 -361.892 0
rfingers 7.12502 0 0
rthumb -39.7521 330.883 0
1839
root 6.99258 13.871 27.7785 1059.89 52.344 337.306
lfemur -54.0815 28.9864 2.06315
ltibia 69.6822 0 0
lfoot -7.23959 -8.34538 0
ltoes -25.0438 0 0
rfemur 4.61374 -3.82425 17.4658
rtibia 47.863 0 0
rfoot -26.1887 -30.4491 0
rtoes -27.3587 0 0
lowerback 13.8046 4.6516 5.81218
upperback -0.490953 7.67613 5.134
thorax -8.23616 3.63188 0.654204
lowerneck -3.75778 10.2592 3.82792
upperneck 7.56455 13.7303 -2.41243
head 3.58866 6.83912 -0.803596
lclavicle -1.10624e-13 -2.17296e-14 0
lhumerus 62.691 17.769 109.549
lradius 9.87733 0 0
lwrist -85.0326 0 0
lhand -31.8716 41.8578 0
lfingers 7.12502 0 0
lthumb -5.23646 54.6552 0
rclavicle 1.64328e-14 -1.65861e-14 0
rhumerus -72.0252 12.8151 -81.0535
rradius 124.768 0 0
rwrist -148.261 0 0
rhand -57.5419 -367.121 0
rfingers 7.12502 0 0
rthumb -38.3499 327.086 0
1840
root 7.01257 13.8631 27.7881 1059.83 52.3936 337.041
lfemur -54.2829 29.1338 1.9931
ltibia 69.9682 0 0
lfoot -7.51496 -8.43791 0
ltoes -25.2145 0 0
rfemur 4.67636 -3.89396 17.4788
rtibia 47.7574 0 0
rfoot -26.0297 -30.437 0
rtoes -27.5572 0 0
lowerback 13.8542 4.69859 5.96041
upperback -0.532127 7.77334 5.14591
thorax -8.29048 3.67058 0.561385
lowerneck -3.55389 10.6759 4.12353
upperneck 7.33646 14.3037 -2.80322
head 3.55277 7.11972 -0.958493
lclavicle -1.11632e-13 -1.90697e-14 0
lhumerus 62.7629 17.5784 109.57
lradius 9.90383 0 0
lwrist -86.3096 0 0
lhand -31.8149 41.7032 0
lfingers 7.12502 0 0
lthumb -5.1697 60.041 0
rclavicle 1.75095e-14 -1.76422e-14 0
rhumerus -72.197 12.802 -81.4678
rradius 124.845 0 0
rwrist -145.82 0 0
rhand -57.0309 -372.351 0
rfingers 7.12502 0 0
rthumb -36.9476 323.289 0
